<svg width="80" height="43" viewBox="0 0 80 43" fill="none" xmlns="http://www.w3.org/2000/svg">
<rect width="8.53157" height="8.53157" rx="1.02379" transform="matrix(0.866025 -0.5 0.866025 0.5 0.682617 15.101)" fill="#131313"/>
<rect width="8.53157" height="8.53157" rx="1.02379" transform="matrix(0.866025 -0.5 0.866025 0.5 8.81055 19.7934)" fill="#131313"/>
<rect width="8.53157" height="8.53157" rx="1.02379" transform="matrix(0.866025 -0.5 0.866025 0.5 8.81055 10.4086)" fill="#131313"/>
<rect width="8.53157" height="8.53157" rx="1.02379" transform="matrix(0.866025 0.5 0 1 0 16.0394)" fill="#131313"/>
<rect width="8.53157" height="8.53157" rx="1.02379" transform="matrix(0.866025 0.5 0 1 0 25.4241)" fill="#131313"/>
<rect width="8.53157" height="8.53157" rx="1.02379" transform="matrix(0.866025 0.5 0 1 8.12793 20.7317)" fill="#131313"/>
<rect width="8.53157" height="8.53157" rx="1.02379" transform="matrix(0.866025 0.5 0 1 8.12793 30.1165)" fill="#131313"/>
<rect width="8.53157" height="8.53157" rx="1.02379" transform="matrix(0.866025 -0.5 0 1 16.5508 24.9977)" fill="#131313"/>
<rect width="8.53157" height="8.53157" rx="1.02379" transform="matrix(0.866025 -0.5 0 1 16.5508 34.3821)" fill="#131313"/>
<rect width="8.53157" height="8.53157" rx="1.02379" transform="matrix(0.866025 -0.5 0 1 24.6777 20.3051)" fill="#131313"/>
<rect width="8.53157" height="8.53157" rx="1.02379" transform="matrix(0.866025 -0.5 0 1 24.6777 29.6898)" fill="#131313"/>
<rect width="8.53157" height="8.53157" rx="1.02379" transform="matrix(-0.258819 0.965926 -0.965926 0.258819 34.3369 0)" fill="#131313"/>
<path d="M41.826 26.457V19.079H43.534V26.457H41.826ZM42.68 18.225C42.3533 18.225 42.092 18.127 41.896 17.931C41.7 17.735 41.602 17.4784 41.602 17.161C41.602 16.853 41.7047 16.601 41.91 16.405C42.1153 16.1997 42.372 16.097 42.68 16.097C42.9787 16.097 43.2353 16.195 43.45 16.391C43.6647 16.587 43.772 16.8437 43.772 17.161C43.772 17.4784 43.6693 17.735 43.464 17.931C43.2587 18.127 42.9973 18.225 42.68 18.225ZM49.6273 26.569C48.6006 26.569 47.7373 26.359 47.0373 25.939C46.3373 25.5097 45.8099 24.917 45.4553 24.161C45.1006 23.405 44.9233 22.5277 44.9233 21.529C44.9233 20.5304 45.1053 19.6484 45.4693 18.883C45.8333 18.1177 46.3653 17.5204 47.0653 17.091C47.7653 16.6524 48.6193 16.433 49.6273 16.433C50.3739 16.433 51.0319 16.559 51.6013 16.811C52.1706 17.063 52.6326 17.4224 52.9873 17.889C53.3513 18.3464 53.5846 18.911 53.6873 19.583H51.9933C51.8626 19.107 51.5966 18.7337 51.1953 18.463C50.7939 18.1924 50.2713 18.057 49.6273 18.057C48.9273 18.057 48.3626 18.2204 47.9333 18.547C47.5039 18.8737 47.1913 19.2937 46.9953 19.807C46.8086 20.3204 46.7153 20.871 46.7153 21.459C46.7153 22.0657 46.8133 22.635 47.0093 23.167C47.2146 23.699 47.5366 24.1284 47.9753 24.455C48.4139 24.7817 48.9786 24.945 49.6693 24.945C50.0986 24.945 50.4719 24.8844 50.7893 24.763C51.1159 24.6417 51.3866 24.469 51.6013 24.245C51.8253 24.0117 51.9793 23.741 52.0633 23.433H53.8413C53.7293 24.0957 53.4773 24.6604 53.0853 25.127C52.7026 25.5937 52.2126 25.953 51.6153 26.205C51.0273 26.4477 50.3646 26.569 49.6273 26.569ZM58.4044 26.555C57.3404 26.555 56.5237 26.2797 55.9544 25.729C55.3944 25.1784 55.1144 24.3384 55.1144 23.209V19.079H56.8224V23.097C56.8224 23.489 56.8737 23.8297 56.9764 24.119C57.0884 24.4084 57.2611 24.6324 57.4944 24.791C57.7371 24.9404 58.0404 25.015 58.4044 25.015C58.7964 25.015 59.1044 24.9357 59.3284 24.777C59.5617 24.609 59.7251 24.3804 59.8184 24.091C59.9117 23.8017 59.9584 23.4704 59.9584 23.097V19.079H61.6664V23.209C61.6664 24.3664 61.3771 25.2157 60.7984 25.757C60.2291 26.289 59.4311 26.555 58.4044 26.555ZM67.2528 26.555C66.9822 26.555 66.7115 26.527 66.4408 26.471C66.1702 26.415 65.9088 26.317 65.6568 26.177C65.4142 26.037 65.1902 25.8504 64.9848 25.617L64.9428 26.457H63.2908V16.559H64.9988V20.003C65.2695 19.6577 65.6148 19.401 66.0348 19.233C66.4642 19.0557 66.9075 18.967 67.3648 18.967C68.0928 18.967 68.6902 19.135 69.1568 19.471C69.6328 19.7977 69.9828 20.2457 70.2068 20.815C70.4402 21.3844 70.5568 22.0284 70.5568 22.747C70.5568 23.4657 70.4355 24.1144 70.1928 24.693C69.9595 25.2624 69.6002 25.715 69.1148 26.051C68.6295 26.387 68.0088 26.555 67.2528 26.555ZM66.9728 25.043C67.4488 25.043 67.8222 24.9357 68.0928 24.721C68.3728 24.497 68.5735 24.2077 68.6948 23.853C68.8162 23.4984 68.8768 23.125 68.8768 22.733C68.8768 22.3317 68.8115 21.963 68.6808 21.627C68.5595 21.291 68.3588 21.0204 68.0788 20.815C67.7988 20.6097 67.4255 20.507 66.9588 20.507C66.5295 20.507 66.1655 20.619 65.8668 20.843C65.5775 21.0577 65.3582 21.3424 65.2088 21.697C65.0595 22.0424 64.9848 22.4017 64.9848 22.775C64.9848 23.167 65.0502 23.5357 65.1808 23.881C65.3208 24.2264 65.5355 24.5064 65.8248 24.721C66.1235 24.9357 66.5062 25.043 66.9728 25.043ZM75.2355 26.555C74.4701 26.555 73.8168 26.3964 73.2755 26.079C72.7435 25.7617 72.3375 25.323 72.0575 24.763C71.7868 24.1937 71.6515 23.5357 71.6515 22.789C71.6515 22.0424 71.7915 21.3844 72.0715 20.815C72.3608 20.2364 72.7715 19.7837 73.3035 19.457C73.8448 19.1304 74.4935 18.967 75.2495 18.967C75.8095 18.967 76.2995 19.0697 76.7195 19.275C77.1395 19.471 77.4895 19.7417 77.7695 20.087C78.0588 20.4324 78.2735 20.8244 78.4135 21.263C78.5535 21.7017 78.6188 22.1637 78.6095 22.649C78.6001 22.761 78.5908 22.873 78.5815 22.985C78.5721 23.0877 78.5581 23.1997 78.5395 23.321H73.3595C73.3875 23.6477 73.4715 23.9464 73.6115 24.217C73.7608 24.4877 73.9661 24.7024 74.2275 24.861C74.4981 25.0197 74.8341 25.099 75.2355 25.099C75.4688 25.099 75.6928 25.071 75.9075 25.015C76.1221 24.9497 76.3088 24.8564 76.4675 24.735C76.6355 24.6137 76.7475 24.4597 76.8035 24.273H78.5115C78.3901 24.805 78.1661 25.239 77.8395 25.575C77.5128 25.911 77.1208 26.1584 76.6635 26.317C76.2155 26.4757 75.7395 26.555 75.2355 26.555ZM73.3875 22.047H76.9435C76.9435 21.739 76.8735 21.459 76.7335 21.207C76.5935 20.955 76.3928 20.759 76.1315 20.619C75.8795 20.4697 75.5715 20.395 75.2075 20.395C74.8155 20.395 74.4888 20.4744 74.2275 20.633C73.9661 20.7917 73.7655 20.997 73.6255 21.249C73.4855 21.501 73.4061 21.767 73.3875 22.047Z" fill="black"/>
</svg>
