<svg width="24" height="24" viewBox="0 0 24 24" fill="none" xmlns="http://www.w3.org/2000/svg">
<path d="M21 14.5125L16.5853 12.5334L16.5684 12.5259C16.2815 12.4022 15.9681 12.3524 15.6569 12.3811C15.3458 12.4097 15.0467 12.516 14.7872 12.69C14.7508 12.7143 14.7158 12.7406 14.6822 12.7688L12.5906 14.55C11.3719 13.8891 10.1128 12.6403 9.45094 11.4366L11.2378 9.31219C11.2665 9.27787 11.2931 9.24187 11.3175 9.20438C11.487 8.94577 11.5899 8.64927 11.617 8.34127C11.6442 8.03327 11.5948 7.72333 11.4731 7.43906C11.4702 7.43362 11.4677 7.42798 11.4656 7.42219L9.48751 3C9.32513 2.63018 9.04801 2.32246 8.69716 2.12238C8.3463 1.9223 7.94035 1.84049 7.53938 1.88906C6.17848 2.06784 4.92918 2.73588 4.02482 3.76843C3.12046 4.80097 2.62288 6.12741 2.62501 7.5C2.62501 15.1509 8.84907 21.375 16.5 21.375C17.8726 21.3771 19.199 20.8795 20.2316 19.9752C21.2641 19.0708 21.9322 17.8215 22.1109 16.4606C22.1595 16.0597 22.0777 15.6537 21.8776 15.3029C21.6776 14.952 21.3698 14.6749 21 14.5125ZM16.5 19.125C13.418 19.1213 10.4633 17.8953 8.284 15.716C6.1047 13.5367 4.87873 10.582 4.87501 7.5C4.87286 6.72328 5.13655 5.9692 5.62227 5.36308C6.10799 4.75696 6.78648 4.33528 7.54501 4.16813L9.30938 8.10563L7.51313 10.245C7.4841 10.2796 7.45717 10.3159 7.43251 10.3538C7.25546 10.6243 7.15137 10.936 7.13034 11.2586C7.10932 11.5812 7.17207 11.9038 7.31251 12.195C8.19563 14.0025 10.0153 15.81 11.8416 16.695C12.1347 16.834 12.4589 16.8945 12.7825 16.8707C13.106 16.8469 13.4179 16.7395 13.6875 16.5591C13.7237 16.5345 13.7585 16.5079 13.7916 16.4794L15.8944 14.6916L19.8319 16.455C19.6647 17.2135 19.2431 17.892 18.6369 18.3777C18.0308 18.8635 17.2767 19.1271 16.5 19.125Z" fill="black"/>
</svg>
